<?xml version="1.0" standalone="no"?>
<!DOCTYPE svg PUBLIC "-//W3C//DTD SVG 20010904//EN"
 "http://www.w3.org/TR/2001/REC-SVG-20010904/DTD/svg10.dtd">
<svg version="1.0" xmlns="http://www.w3.org/2000/svg"
 width="512.000000pt" height="512.000000pt" viewBox="0 0 512.000000 512.000000"
 preserveAspectRatio="xMidYMid meet">
<metadata>
Created by potrace 1.11, written by Peter Selinger 2001-2013
</metadata>
<g transform="translate(0.000000,512.000000) scale(0.100000,-0.100000)"
fill="#000000" stroke="none">
<path d="M2421 3869 c-1631 -109 -2218 -152 -2227 -161 -10 -11 -94 -398 -94
-436 0 -7 24 -23 54 -36 255 -113 545 -472 759 -939 55 -122 157 -404 157
-438 0 -43 474 -132 950 -179 589 -57 1154 -84 2158 -101 520 -9 659 -9 683 1
66 28 67 -50 -16 1222 -81 1230 -77 1188 -131 1208 -31 12 273 31 -2293 -141z"/>
</g>
</svg>
